<svg xmlns="http://www.w3.org/2000/svg" version="1.1" xmlns:xlink="http://www.w3.org/1999/xlink" xmlns:svgjs="http://svgjs.dev/svgjs" viewBox="0 0 800 800"><defs><filter id="uuunion-blur" x="-100%" y="-100%" width="400%" height="400%" color-interpolation-filters="sRGB">
        <feGaussianBlur in="SourceGraphic" stdDeviation="7.5 0" result="blur"></feGaussianBlur>
        <feDropShadow stdDeviation="12.307692307692308" in="blur" dx="10" dy="10" flood-color="hsl(331, 90%, 56%)" flood-opacity="0.25" x="0%" y="0%" width="100%" height="100%"></feDropShadow>
      </filter><filter id="uuunion-blur2" x="-100%" y="-100%" width="400%" height="400%" color-interpolation-filters="sRGB">
        <feGaussianBlur in="SourceGraphic" stdDeviation="7.5 0" result="blur"></feGaussianBlur>
        <feDropShadow stdDeviation="12.307692307692308" in="blur" dx="-10" dy="-10" flood-color="hsl(331, 90%, 56%)" flood-opacity="0.25" x="0%" y="0%" width="100%" height="100%"></feDropShadow>
      </filter><linearGradient gradientTransform="rotate(0, 0.5, 0.5)" x1="50%" y1="0%" x2="50%" y2="100%" id="uuunion-grad"><stop stop-color="hsl(206, 75%, 49%)" offset="10%"></stop><stop stop-color="hsl(331, 90%, 56%)" offset="90%"></stop></linearGradient><linearGradient gradientTransform="rotate(135, 0.5, 0.5)" x1="50%" y1="0%" x2="50%" y2="100%" id="uuunion-grad2"><stop stop-color="hsl(206, 75%, 49%)" offset="25%"></stop><stop stop-color="hsl(331, 90%, 56%)" offset="100%"></stop></linearGradient><linearGradient gradientTransform="rotate(333, 0.5, 0.5)" x1="50%" y1="0%" x2="50%" y2="100%" id="uuunion-grad3"><stop stop-color="hsl(206, 75%, 49%)" offset="0%"></stop><stop stop-color="hsl(331, 90%, 56%)" offset="75%"></stop></linearGradient></defs><path d="M-79.05 -79.46Q-64.39 -77.02 -49.73 -74.83 -35.06 -73.05 -20.4 -71.81 -5.74 -71.23 8.91 -71.35 23.57 -72.16 38.23 -73.58 52.89 -75.52 67.55 -77.82 82.21 -80.29 96.88 -82.73 111.54 -84.96 126.2 -86.79 140.86 -88.08 155.52 -88.73 170.18 -88.68 184.84 -87.94 199.5 -86.57 214.16 -84.68 228.83 -82.41 243.49 -79.95 258.15 -77.5 272.81 -75.24 287.47 -73.36 302.13 -72.01 316.79 -71.3 331.45 -71.27 346.12 -71.94 360.78 -73.25 375.44 -75.1 390.1 -77.34 404.76 -79.79 419.42 -82.25 434.08 -84.54 448.74 -86.46 463.4 -87.87 478.07 -88.65 492.73 -88.75 507.39 -88.15 522.05 -86.9 536.71 -85.1 551.37 -82.89 566.03 -80.45 580.69 -77.98 595.36 -75.67 610.02 -73.7 624.68 -72.23 639.34 -71.38 654 -71.22 668.66 -71.75 683.32 -72.94 697.98 -74.69 712.64 -76.87 727.31 -79.29 741.97 -81.76 756.63 -84.1 771.29 -86.11 785.95 -87.63 800.61 -88.55 815.27 -88.79 829.93 -88.32 844.59 -87.19 859.26 -85.49 856.13 -70.63 856.67 -55.78 860.81 -40.92 867.89 -26.06 876.83 -11.2 886.26 3.65 894.73 18.51 900.93 33.37 903.91 48.23 903.21 63.09 898.94 77.95 891.76 92.81 882.77 107.67 873.35 122.53 864.95 137.39 858.87 152.25 856.03 167.11 856.88 181.97 861.29 196.82 868.57 211.68 877.61 226.54 887.02 241.4 895.34 256.26 901.31 271.12 904 285.98 902.99 300.84 898.45 315.7 891.07 330.56 881.99 345.42 872.6 360.28 864.34 375.14 858.5 390 855.96 404.86 857.12 419.72 861.8 434.58 869.27 449.43 878.4 464.29 887.77 479.15 895.94 494.01 901.66 508.87 904.05 523.73 902.74 538.59 897.93 553.45 890.36 568.31 881.2 583.17 871.85 598.03 863.76 612.89 858.16 627.75 855.92 642.61 857.38 657.47 862.32 672.33 869.98 687.18 879.18 702.04 888.51 716.9 896.52 731.76 902 746.62 904.09 761.48 902.47 776.34 897.4 791.2 889.65 806.06 880.42 820.92 871.12 835.78 863.18 850.64 857.84 865.5 843.2 861.02 828.56 858.05 813.92 856.82 799.28 857.44 784.65 859.85 770.01 863.87 755.37 869.17 740.73 875.33 726.09 881.86 711.46 888.25 696.82 893.97 682.18 898.59 667.54 901.72 652.9 903.13 638.27 902.7 623.63 900.46 608.99 896.59 594.35 891.4 579.71 885.3 565.08 878.79 550.44 872.36 535.8 866.55 521.16 861.8 506.52 858.51 491.89 856.92 477.25 857.17 462.61 859.23 447.97 862.95 433.33 868.02 418.7 874.05 404.06 880.55 389.42 887 374.78 892.9 360.15 897.77 345.51 901.23 330.87 902.99 316.23 902.93 301.59 901.04 286.96 897.48 272.32 892.53 257.68 886.58 243.04 880.1 228.4 873.62 213.77 867.64 199.13 862.65 184.49 859.04 169.85 857.09 155.21 856.97 140.58 858.68 125.94 862.08 111.3 866.91 96.66 872.79 82.02 879.23 67.39 885.74 52.75 891.78 38.11 896.9 23.47 900.66 8.83 902.78 -5.79 903.09 -20.43 901.56 -35.07 898.32 -49.71 893.61 -64.35 887.83 -78.98 881.42 -79.23 866.4 -79.59 851.39 -80.01 836.38 -80.44 821.36 -80.79 806.35 -81.02 791.33 -81.09 776.32 -81 761.31 -80.75 746.29 -80.38 731.28 -79.96 716.27 -79.54 701.25 -79.19 686.24 -78.96 671.22 -78.9 656.21 -79 641.2 -79.25 626.18 -79.62 611.17 -80.05 596.16 -80.47 581.14 -80.81 566.13 -81.03 551.11 -81.09 536.1 -80.98 521.09 -80.72 506.07 -80.35 491.06 -79.92 476.05 -79.51 461.03 -79.16 446.02 -78.95 431 -78.9 415.99 -79.01 400.98 -79.28 385.96 -79.66 370.95 -80.09 355.93 -80.5 340.92 -80.84 325.91 -81.04 310.89 -81.09 295.88 -80.97 280.87 -80.7 265.85 -80.32 250.84 -79.89 235.82 -79.47 220.81 -79.14 205.8 -78.94 190.78 -78.9 175.77 -79.03 160.76 -79.31 145.74 -79.69 130.73 -80.12 115.71 -80.53 100.7 -80.86 85.69 -81.05 70.67 -81.09 55.66 -80.95 40.65 -80.67 25.63 -80.28 10.62 -79.85 -4.39 -79.44 -19.4 -79.12 -34.41 -78.93 -49.43 -78.91 -64.44 -79.05 -79.46" fill="url(#uuunion-grad)"></path><path d="M-79.05 -79.46Q-78.91 -64.44 -78.93 -49.43 -79.12 -34.41 -79.44 -19.4 -79.85 -4.39 -80.28 10.62 -80.67 25.63 -80.95 40.65 -81.09 55.66 -81.05 70.67 -80.86 85.69 -80.53 100.7 -80.12 115.71 -79.69 130.73 -79.31 145.74 -79.03 160.76 -78.9 175.77 -78.94 190.78 -79.14 205.8 -79.47 220.81 -79.89 235.82 -80.32 250.84 -80.7 265.85 -80.97 280.87 -81.09 295.88 -81.04 310.89 -80.84 325.91 -80.5 340.92 -80.09 355.93 -79.66 370.95 -79.28 385.96 -79.01 400.98 -69.25 403.95 -59.48 406.79 -49.72 409.39 -39.95 411.65 -30.18 413.5 -20.42 414.87 -2.11 415.92 1.05 415.98 13.34 409.06 25.73 401.31 38.23 392.82 50.85 383.72 63.59 374.17 76.45 364.37 89.43 354.51 102.52 344.78 115.68 335.39 128.91 326.49 142.17 318.23 155.42 310.7 168.65 303.98 181.8 298.07 194.85 292.95 207.77 288.54 220.52 284.74 233.08 281.4 245.43 278.35 257.56 275.42 269.46 272.43 281.13 269.19 292.58 265.54 303.83 261.35 314.91 256.51 325.86 250.95 336.7 244.64 347.49 237.6 358.28 229.88 369.12 221.57 380.06 212.79 391.17 203.69 402.48 194.43 414.04 185.17 425.91 176.09 438.1 167.32 450.65 159.02 463.57 151.28 476.87 144.18 490.54 137.75 504.55 131.99 518.88 126.87 533.5 122.32 548.34 118.23 563.35 114.47 578.45 110.91 593.59 107.39 608.67 103.77 623.63 99.9 638.39 95.65 652.86 90.92 666.99 85.64 680.71 79.76 693.98 73.26 706.75 66.19 719 58.58 730.71 50.53 741.9 42.13 752.57 33.52 762.77 24.83 772.54 16.19 781.95 7.73 791.07 -0.42 800 -8.17 790.22 -25.46 782.48 -42.74 778.39 -60.03 778.8 -77.31 783.63 -94.6 791.87 -111.88 799.02 -137.05 781.14 -143.03 766.03 -140.89 750.92 -138.68 735.81 -136.57 720.71 -134.72 705.6 -133.3 690.49 -132.4 675.38 -132.1 660.27 -132.41 645.16 -133.33 630.06 -134.76 614.95 -136.61 599.84 -138.73 584.73 -140.94 569.62 -143.08 554.51 -144.98 539.41 -146.48 524.3 -147.48 509.19 -147.89 494.08 -147.67 478.97 -146.86 463.86 -145.5 448.76 -143.72 433.65 -141.63 418.54 -139.43 403.43 -137.26 388.32 -135.31 373.21 -133.73 358.11 -132.64 343 -132.13 327.89 -132.24 312.78 -132.95 297.67 -134.22 282.56 -135.95 267.46 -137.99 252.35 -140.19 237.24 -142.37 222.13 -144.37 207.02 -146.02 191.91 -147.2 176.81 -147.82 161.7 -147.82 146.59 -147.2 131.48 -146.02 116.37 -144.36 101.27 -142.37 86.16 -140.18 71.05 -137.98 55.94 -135.94 40.83 -134.22 25.72 -132.95 10.62 -132.23 -4.48 -132.13 -19.59 -132.64 -34.7 -133.73 -49.81 -135.32 -64.92 -137.27 -80.02 -139.43 -95.13 -141.64 -110.24 -143.72 -125.35 -145.51 -134.6 -133.41 -116.49 -114.96 -106.96 -106.27 -97.55 -97.43 -88.25 -88.48 -79.05 -79.46" fill="url(#uuunion-grad2)" filter="url(#uuunion-blur)"></path><path d="M780.37 386.91Q790.14 385.42 799.9 384.44 809.67 384.01 819.44 384.15 829.2 384.86 838.97 386.1 848.73 387.83 858.5 390 855.96 404.86 857.12 419.72 861.8 434.58 869.27 449.43 878.4 464.29 887.77 479.15 895.94 494.01 901.66 508.87 904.05 523.73 902.74 538.59 897.93 553.45 890.36 568.31 881.2 583.17 871.85 598.03 863.76 612.89 858.16 627.75 855.92 642.61 857.38 657.47 862.32 672.33 869.98 687.18 879.18 702.04 888.51 716.9 896.52 731.76 902 746.62 904.09 761.48 902.47 776.34 897.4 791.2 889.65 806.06 880.42 820.92 871.12 835.78 863.18 850.64 857.84 865.5 844.4 861.33 830.97 858.42 817.54 856.95 804.1 857.03 790.67 858.65 777.24 861.7 763.8 865.98 750.37 871.2 736.94 877.01 723.5 883.02 710.07 888.82 696.64 894.04 683.2 898.31 669.77 901.35 656.34 902.96 642.9 903.03 629.47 901.56 616.03 898.64 602.6 894.46 589.17 889.32 575.73 883.55 562.3 877.54 548.87 871.7 535.43 866.42 522 862.04 508.57 858.87 495.13 857.12 481.7 856.9 468.27 858.23 454.83 861.02 441.4 865.08 427.97 870.15 414.53 875.87 401.1 881.87 387.67 887.75 374.23 893.1 360.8 897.58 347.37 900.88 333.93 902.77 320.5 903.14 307.07 901.96 293.63 899.3 280.2 895.35 266.77 890.36 253.33 884.69 239.9 878.69 226.47 872.79 213.03 867.37 199.6 862.79 186.17 859.37 172.73 857.33 159.3 856.82 145.87 857.85 132.43 860.38 119 864.22 105.57 869.11 92.13 874.74 78.7 880.72 65.27 886.65 51.83 892.14 38.4 896.81 24.97 900.35 4.88 897.78 -1.58 882.89 -1.35 872.74 -1.11 862.59 -0.85 852.44 -0.6 842.29 -0.04 827.07 0.8 822 13.68 815.04 26.58 806.93 39.46 797.75 52.31 787.69 65.09 776.96 77.78 765.82 90.36 754.54 102.81 743.39 115.11 732.65 127.26 722.57 139.26 713.34 151.12 705.12 162.84 698.02 174.44 692.07 185.95 687.25 197.4 683.45 208.82 680.55 220.25 678.35 231.73 676.61 243.3 675.09 255 673.52 266.88 671.64 278.95 669.21 291.25 666.04 303.81 661.95 316.64 656.83 329.75 650.64 343.13 643.38 356.78 635.12 370.67 625.97 384.77 616.11 399.06 605.73 413.48 595.09 427.97 584.41 442.49 573.94 456.98 563.92 471.36 554.55 485.59 545.99 499.6 538.37 513.33 531.75 526.73 526.13 539.78 521.48 552.42 517.7 564.64 514.63 576.44 512.11 587.8 509.91 598.76 507.81 609.34 505.59 619.57 503.01 629.51 499.88 639.23 496.03 648.8 491.34 658.29 485.74 667.79 479.19 677.38 471.72 687.16 463.42 697.2 454.4 707.59 444.82 718.39 434.87 729.67 424.77 741.49 414.72 753.86 404.94 773.6 391.27 780.37 386.91" fill="url(#uuunion-grad3)" filter="url(#uuunion-blur2)"></path></svg>